<?xml version="1.0" standalone="no"?><!DOCTYPE svg PUBLIC "-//W3C//DTD SVG 1.1//EN" "http://www.w3.org/Graphics/SVG/1.1/DTD/svg11.dtd"><svg t="1779697493779" class="icon" viewBox="0 0 1024 1024" version="1.1" xmlns="http://www.w3.org/2000/svg" p-id="1703" xmlns:xlink="http://www.w3.org/1999/xlink" width="200" height="200"><path d="M636.8 259.2h-249.6c-12.8 0-25.6-9.6-25.6-25.6v-28.8c0-64 51.2-112 112-112h73.6c64 0 112 51.2 112 112v28.8c3.2 12.8-9.6 25.6-22.4 25.6z m-227.2-48h201.6v-6.4c0-35.2-28.8-64-64-64h-73.6c-35.2 0-64 28.8-64 64v6.4z" fill="#FF9F43" p-id="1704"></path><path d="M860.8 851.2H163.2c-12.8 0-25.6-9.6-25.6-25.6V233.6c0-12.8 9.6-25.6 25.6-25.6h697.6c12.8 0 25.6 9.6 25.6 25.6v592c0 16-12.8 25.6-25.6 25.6zM185.6 803.2h649.6v-544H185.6v544z" fill="#5F27CD" p-id="1705"></path><path d="M268.8 934.4c-12.8 0-25.6-9.6-25.6-25.6v-67.2c0-12.8 9.6-25.6 25.6-25.6s25.6 9.6 25.6 25.6v67.2c0 12.8-9.6 25.6-25.6 25.6zM764.8 934.4c-12.8 0-25.6-9.6-25.6-25.6v-67.2c0-12.8 9.6-25.6 25.6-25.6s25.6 9.6 25.6 25.6v67.2c0 12.8-12.8 25.6-25.6 25.6zM928 400h-67.2c-12.8 0-25.6-9.6-25.6-25.6s9.6-25.6 25.6-25.6H928c12.8 0 25.6 9.6 25.6 25.6s-12.8 25.6-25.6 25.6zM928 659.2h-67.2c-12.8 0-25.6-9.6-25.6-25.6s9.6-25.6 25.6-25.6H928c12.8 0 25.6 9.6 25.6 25.6s-12.8 25.6-25.6 25.6zM163.2 400H96c-12.8 0-25.6-9.6-25.6-25.6s12.8-22.4 25.6-22.4h67.2c12.8 0 25.6 9.6 25.6 25.6s-12.8 22.4-25.6 22.4zM163.2 659.2H96c-12.8 0-25.6-9.6-25.6-25.6s9.6-25.6 25.6-25.6h67.2c12.8 0 25.6 9.6 25.6 25.6s-12.8 25.6-25.6 25.6z" fill="#5F27CD" p-id="1706"></path><path d="M512 739.2c-115.2 0-208-92.8-208-208s92.8-208 208-208 208 92.8 208 208-92.8 208-208 208z m0-368c-89.6 0-160 70.4-160 160s70.4 160 160 160 160-70.4 160-160-70.4-160-160-160z" fill="#5F27CD" p-id="1707"></path><path d="M512 630.4c-54.4 0-102.4-44.8-102.4-102.4s44.8-102.4 102.4-102.4 102.4 44.8 102.4 102.4-48 102.4-102.4 102.4z m0-153.6c-28.8 0-54.4 22.4-54.4 54.4s22.4 54.4 54.4 54.4 54.4-22.4 54.4-54.4-25.6-54.4-54.4-54.4z" fill="#FF9F43" p-id="1708"></path></svg>